<svg width="826" height="48" viewBox="0 0 826 48" fill="none" xmlns="http://www.w3.org/2000/svg">
<rect width="752" height="16" transform="translate(37 16)" fill="#EDEDED"/>
<rect width="752" height="16" transform="translate(37 16)" fill="url(#paint0_linear_4_533)"/>
<circle cx="24" cy="24" r="24" fill="#7839EE"/>
<circle cx="24" cy="24" r="18" fill="white"/>
<path d="M26.6506 14.5455V32H23.4886V17.6222H23.3864L19.304 20.2301V17.3324L23.642 14.5455H26.6506Z" fill="#7839EE"/>
<circle cx="802" cy="24" r="24" fill="#4E55FF"/>
<circle cx="802" cy="24" r="18" fill="white"/>
<path d="M796.551 32V29.7159L802.611 23.7756C803.19 23.1903 803.673 22.6705 804.06 22.2159C804.446 21.7614 804.736 21.321 804.929 20.8949C805.122 20.4687 805.219 20.0142 805.219 19.5312C805.219 18.9801 805.094 18.5085 804.844 18.1165C804.594 17.7188 804.25 17.4119 803.812 17.196C803.375 16.9801 802.878 16.8722 802.321 16.8722C801.747 16.8722 801.244 16.9915 800.812 17.2301C800.381 17.4631 800.045 17.7955 799.807 18.2273C799.574 18.6591 799.457 19.1733 799.457 19.7699H796.449C796.449 18.6619 796.702 17.6989 797.207 16.8807C797.713 16.0625 798.409 15.429 799.295 14.9801C800.188 14.5312 801.21 14.3068 802.364 14.3068C803.534 14.3068 804.563 14.5256 805.449 14.9631C806.335 15.4006 807.023 16 807.511 16.7614C808.006 17.5227 808.253 18.392 808.253 19.3693C808.253 20.0227 808.128 20.6648 807.878 21.2955C807.628 21.9261 807.188 22.625 806.557 23.392C805.932 24.1591 805.054 25.0881 803.923 26.179L800.915 29.2386V29.358H808.517V32H796.551Z" fill="#4E55FF"/>
<defs>
<linearGradient id="paint0_linear_4_533" x1="0" y1="8" x2="752" y2="8" gradientUnits="userSpaceOnUse">
<stop stop-color="#7839EE"/>
<stop offset="0.168" stop-color="#A27DFF"/>
<stop offset="0.348" stop-color="#F194E8"/>
<stop offset="0.528" stop-color="#E3A6FA"/>
<stop offset="0.733" stop-color="#0EC6FF"/>
<stop offset="1" stop-color="#4E55FF"/>
</linearGradient>
</defs>
</svg>
